<svg t="1651636207731" class="icon" viewBox="0 0 1024 1024" version="1.1" xmlns="http://www.w3.org/2000/svg" p-id="1569" width="200" height="200"><path d="M696.066017 594.671975L646.179709 565.680159l19.634594-2.095111 49.886308 28.991816-19.634594 2.095111z" fill="#ffffff" p-id="1570"></path><path d="M531.92534 847.784119l-49.886308-28.991816a280.532626 280.532626 0 0 0 57.091794-43.671754L589.017134 804.069896a280.532626 280.532626 0 0 1-57.091794 43.671754" fill="#ffffff" p-id="1571"></path><path d="M589.017134 804.069896l-49.886308-28.991816q8.182261-8.069011 15.840743-16.888299l49.886308 28.97766q-7.672639 8.833444-15.840743 16.902455" fill="#ffffff" p-id="1572"></path><path d="M604.857877 787.209909l-49.886308-28.977659q5.903119-6.794957 11.494802-14.014599L616.310211 773.209467q-5.662464 7.247954-11.494802 14.000442" fill="#ffffff" p-id="1573"></path><path d="M616.310211 773.209467l-49.886308-28.991816q4.954656-6.370272 9.668657-13.108604l49.886308 28.991816q-4.714001 6.724176-9.668657 13.108604" fill="#ffffff" p-id="1574"></path><path d="M626.021337 760.100863l-49.886308-28.991816c1.939394-2.746295 3.836319-5.549215 5.662464-8.394603 0.92015-1.415616 1.840301-2.831232 2.746295-4.246848L634.486721 747.445255c-0.905994 1.415616-1.826145 2.831232-2.746295 4.246849q-2.831232 4.246848-5.662464 8.394602" fill="#ffffff" p-id="1575"></path><path d="M634.486721 747.445255l-49.886309-28.963503q3.864632-6.072993 7.587702-12.429109l49.886308 28.991816q-3.708914 6.356116-7.587701 12.429109" fill="#ffffff" p-id="1576"></path><path d="M642.074422 735.044459L592.244739 706.052643q3.808007-6.52599 7.417828-13.320946l49.886308 28.991815q-3.623977 6.809113-7.417828 13.320947" fill="#ffffff" p-id="1577"></path><path d="M649.49225 721.723512l-49.886308-28.991815q3.808007-7.163017 7.417828-14.651626l49.886308 28.991816q-3.609821 7.488609-7.417828 14.651625" fill="#ffffff" p-id="1578"></path><path d="M656.910078 707.071887L607.02377 678.080071c2.590577-5.379341 5.12453-10.914399 7.573546-16.562708L664.441155 690.495023q-3.666445 8.493696-7.573545 16.576864" fill="#ffffff" p-id="1579"></path><path d="M664.441155 690.495023l-49.843839-28.97766q4.119443-9.498783 7.955762-19.478876L672.439386 671.001991q-3.850476 9.980093-7.955762 19.46472" fill="#ffffff" p-id="1580"></path><path d="M672.439386 671.001991l-49.886308-28.991816q4.45919-11.593895 8.493696-23.838974l49.886308 28.97766q-4.105286 12.273391-8.493696 23.85313" fill="#ffffff" p-id="1581"></path><path d="M680.989707 647.177173l-49.886309-28.97766q5.011281-15.076311 9.498784-31.143552l49.886308 28.991816q-4.473347 16.095554-9.498783 31.143552" fill="#ffffff" p-id="1582"></path><path d="M690.48849 616.019465l-49.886308-28.991816q2.902013-10.475559 5.577527-21.34749l49.886308 28.991816q-2.675514 10.871931-5.577527 21.34749" fill="#ffffff" p-id="1583"></path><path d="M430.043456 906.602964l-49.886308-28.991816 101.881884-58.818845 49.886308 28.991816-101.881884 58.818845z" fill="#ffffff" p-id="1584"></path><path d="M402.424787 911.316965l-49.886308-28.991816 0.127406 0.084937L402.552193 911.401902l-0.127406-0.084937" fill="#ffffff" p-id="1585"></path><path d="M402.552193 911.401902l-49.886308-28.991816a12.584826 12.584826 0 0 0 1.245742 0.594559l49.886308 28.991816a12.584826 12.584826 0 0 1-1.245742-0.594559" fill="#ffffff" p-id="1586"></path><path d="M403.797935 911.996461l-49.886308-28.991816 0.73612 0.283123 0.750276 0.240655 49.886309 28.991816-0.750277-0.240655-0.73612-0.283123" fill="#ffffff" p-id="1587"></path><path d="M405.284332 912.520239l-49.886309-28.991816a14.835656 14.835656 0 0 0 1.783677 0.410529l49.886308 28.991816a14.835656 14.835656 0 0 1-1.783676-0.410529" fill="#ffffff" p-id="1588"></path><path d="M407.068008 912.930768L357.25248 883.938952a17.794293 17.794293 0 0 0 1.967707 0.226498l49.886308 28.991816a17.794293 17.794293 0 0 1-1.967706-0.226498" fill="#ffffff" p-id="1589"></path><path d="M409.035714 913.157266l-49.886308-28.991816a19.28069 19.28069 0 0 0 2.222517 0l49.886308 28.991816h-2.222517" fill="#ffffff" p-id="1590"></path><path d="M411.258231 913.185578L361.371923 884.193762a25.169653 25.169653 0 0 0 2.633046-0.268967L413.877121 912.916611a25.169653 25.169653 0 0 1-2.633046 0.268967" fill="#ffffff" p-id="1591"></path><path d="M413.877121 912.916611l-49.872152-28.991816a32.261889 32.261889 0 0 0 3.383322-0.721964l49.886308 28.991816a32.261889 32.261889 0 0 1-3.383322 0.721964" fill="#ffffff" p-id="1592"></path><path d="M417.274599 912.194647l-49.886308-28.991816a43.700066 43.700066 0 0 0 5.096218-1.755364L422.370817 910.439283a43.700066 43.700066 0 0 1-5.096218 1.755364" fill="#ffffff" p-id="1593"></path><path d="M422.370817 910.439283l-49.886308-28.991816a64.537934 64.537934 0 0 0 7.672639-3.836319l49.886308 28.991816a64.537934 64.537934 0 0 1-7.672639 3.836319" fill="#ffffff" p-id="1594"></path><path d="M582.845048 564.094669L532.95874 535.102853l-0.056625-17.964167 49.886309 28.991816 0.056624 17.964167z" fill="#ffffff" p-id="1595"></path><path d="M296.196962 983.85313l-49.886309-28.963504a92.666224 92.666224 0 0 0 18.785225-13.873037l49.886308 28.991816A92.666224 92.666224 0 0 1 296.196962 983.85313" fill="#ffffff" p-id="1596"></path><path d="M314.982186 970.008405L265.095878 941.016589q1.684583-1.656271 3.142667-3.35501l49.886309 28.991816q-1.415616 1.698739-3.142668 3.35501" fill="#ffffff" p-id="1597"></path><path d="M318.124854 966.653395l-49.886309-28.991816c0.679496-0.778589 1.316523-1.557178 1.925238-2.349922l49.886309 28.991816c-0.608715 0.792745-1.245742 1.571334-1.925238 2.349922" fill="#ffffff" p-id="1598"></path><path d="M320.050092 964.303473l-49.886309-28.991816c0.481309-0.622871 0.948463-1.245742 1.415616-1.88277l49.886309 28.991816c-0.452997 0.637027-0.92015 1.259898-1.415616 1.88277" fill="#ffffff" p-id="1599"></path><path d="M321.451551 962.420703l-49.886308-28.991816c0.382216-0.55209 0.764433-1.10418 1.118337-1.670426l49.886308 28.991815c-0.353904 0.566246-0.73612 1.118337-1.118337 1.670427" fill="#ffffff" p-id="1600"></path><path d="M322.569888 960.750276L272.68358 931.758461c0.325592-0.509622 0.637027-1.0334 0.948462-1.543022l49.886309 28.991816c-0.311436 0.509622-0.622871 1.0334-0.948463 1.543021" fill="#ffffff" p-id="1601"></path><path d="M323.518351 959.207255l-49.886309-28.991816c0-0.070781 0-0.127405 0.099094-0.18403 0.311436-0.55209 0.622871-1.090024 0.905994-1.642115l49.886308 28.991816c-0.283123 0.55209-0.594559 1.090024-0.905994 1.627959 0 0 0 0.127405-0.099093 0.198186" fill="#ffffff" p-id="1602"></path><path d="M324.523438 957.38111l-49.886308-28.991816q0.509622-0.934307 0.976775-1.911081L325.500213 955.54081q-0.467153 0.976775-0.976775 1.911081" fill="#ffffff" p-id="1603"></path><path d="M325.500213 955.54081l-49.886308-29.062597c0.311436-0.651183 0.622871-1.316523 0.905994-1.996019l49.886308 28.991816c-0.283123 0.679496-0.594559 1.415616-0.905994 1.996019" fill="#ffffff" p-id="1604"></path><path d="M326.406207 953.47401L276.562368 924.482194q0.467153-1.061712 0.891838-2.165892L327.298046 951.293962q-0.424685 1.10418-0.891839 2.165892" fill="#ffffff" p-id="1605"></path><path d="M327.298046 951.293962L277.411737 922.316302c0.297279-0.792745 0.594559-1.58549 0.863526-2.406548l49.886308 28.991816c-0.268967 0.821057-0.566246 1.613802-0.863525 2.406548" fill="#ffffff" p-id="1606"></path><path d="M328.161571 948.90157l-49.886308-28.991816c0.311436-0.934307 0.594559-1.882769 0.863526-2.831232l49.886308 28.97766c-0.268967 0.962619-0.55209 1.911082-0.863526 2.831232" fill="#ffffff" p-id="1607"></path><path d="M329.025097 946.056182l-49.886308-28.97766c0.325592-1.189117 0.622871-2.378235 0.877682-3.595664l49.886308 28.991816c-0.254811 1.21743-0.55209 2.406547-0.877682 3.581508" fill="#ffffff" p-id="1608"></path><path d="M329.902779 942.474674l-49.886308-28.991816c0.36806-1.712895 0.66534-3.468259 0.905994-5.266092l49.872152 28.991816q-0.339748 2.703827-0.891838 5.266092" fill="#ffffff" p-id="1609"></path><path d="M330.794617 937.208582l-49.872152-28.991816a79.00553 79.00553 0 0 0 0.594559-9.909312l49.886308 29.062597a76.344172 76.344172 0 0 1-0.608715 9.838531" fill="#ffffff" p-id="1610"></path><path d="M272.726048 1024L222.83974 995.008184 222.768959 968.47954l49.886308 28.991816 0.070781 26.528644z" fill="#ffffff" p-id="1611"></path><path d="M272.655267 997.471356L222.768959 968.47954l23.541694-13.589914 49.886309 28.991816-23.541695 13.589914z" fill="#ffffff" p-id="1612"></path><path d="M582.788424 546.130502l-49.886309-28.97766q-0.127405-49.334218-17.907542-66.052643a25.580181 25.580181 0 0 0-4.714001-3.524884l49.886308 28.991816a25.580181 25.580181 0 0 1 4.714001 3.524884q17.780137 16.718425 17.907543 66.038487" fill="#ffffff" p-id="1613"></path><path d="M507.689994 459.537271L457.761217 430.545455a169.222738 169.222738 0 0 0 34.555187-25.877461l49.886309 28.991816a169.222738 169.222738 0 0 1-34.555187 25.877461" fill="#ffffff" p-id="1614"></path><path d="M542.245181 433.65981l-49.886308-28.991816c2.463172-2.43486 4.798938-4.912188 7.007299-7.460297l49.886308 28.991816c-2.208361 2.548109-4.544127 5.025437-7.007299 7.460297" fill="#ffffff" p-id="1615"></path><path d="M549.25248 426.199513l-49.886308-28.991816q2.364079-2.68967 4.529971-5.506746l49.886309 28.991816c-1.415616 1.868613-2.958637 3.694758-4.529972 5.506746" fill="#ffffff" p-id="1616"></path><path d="M553.782452 420.692767l-49.886309-28.991816c1.203274-1.543021 2.364079-3.114355 3.46826-4.699845l49.886308 28.97766a100.721079 100.721079 0 0 1-3.468259 4.714001" fill="#ffffff" p-id="1617"></path><path d="M557.250711 415.978766L507.307778 387.001106c0.990931-1.415616 1.95355-2.831232 2.831232-4.246848l49.886308 28.991816c-0.92015 1.415616-1.882769 2.831232-2.831232 4.246848" fill="#ffffff" p-id="1618"></path><path d="M560.124411 411.703605l-49.886308-28.991816c0.863526-1.415616 1.698739-2.717983 2.50564-4.09113l49.886309 28.991816c-0.806901 1.415616-1.642115 2.732139-2.505641 4.09113" fill="#ffffff" p-id="1619"></path><path d="M562.630052 407.612475l-49.886309-28.991816c0.693652-1.203274 1.415616-2.420703 2.038487-3.638133 0.070781-0.155718 0.155718-0.311436 0.240655-0.467153L564.909194 403.450564l-0.254811 0.467153c-0.651183 1.21743-1.330679 2.43486-2.024331 3.638133" fill="#ffffff" p-id="1620"></path><path d="M564.909194 403.450564l-49.886309-28.991816c0.806901-1.500553 1.571334-3.029418 2.32161-4.57244l49.886309 28.991816c-0.750276 1.543021-1.514709 3.071887-2.32161 4.57244" fill="#ffffff" p-id="1621"></path><path d="M567.230804 398.934749l-49.886309-28.991816q1.146649-2.392391 2.208361-4.841407l49.886309 28.991816q-1.061712 2.449016-2.208361 4.841407" fill="#ffffff" p-id="1622"></path><path d="M569.439165 394.093342l-49.886309-28.991816c0.764433-1.755364 1.415616-3.524884 2.180049-5.30856l49.886308 28.97766c-0.693652 1.797832-1.415616 3.567352-2.180048 5.322716" fill="#ffffff" p-id="1623"></path><path d="M571.619213 388.770626l-49.886308-28.97766c0.750276-1.967706 1.415616-3.963725 2.13758-5.988056l49.886309 28.991816c-0.66534 2.024331-1.415616 4.020349-2.137581 5.9739" fill="#ffffff" p-id="1624"></path><path d="M573.756794 382.796726l-49.886309-28.991816q1.189117-3.510728 2.180049-7.07808l49.886308 28.991816q-1.005087 3.623977-2.180048 7.07808" fill="#ffffff" p-id="1625"></path><path d="M575.936842 375.662022l-49.886308-28.991816q1.274054-4.515815 2.264986-9.243973l49.886308 28.991816q-1.005087 4.714001-2.264986 9.243973" fill="#ffffff" p-id="1626"></path><path d="M578.201828 366.418049l-49.886308-28.991816q1.415616-6.695864 2.335766-13.731475l49.886308 28.991816q-0.905994 7.07808-2.335766 13.731475" fill="#ffffff" p-id="1627"></path><path d="M580.537594 352.686574l-49.886308-28.991816a202.305685 202.305685 0 0 0 1.627958-26.896704l49.886309 28.991815a202.305685 202.305685 0 0 1-1.627959 26.896705" fill="#ffffff" p-id="1628"></path><path d="M582.094772 298.694979l-49.886308-28.991816 23.102853-13.349259 49.872152 28.991816-23.088697 13.349259z" fill="#ffffff" p-id="1629"></path><path d="M582.165553 325.832338l-49.886309-28.991816-0.07078-27.137359L582.094772 298.694979l0.070781 27.137359z" fill="#ffffff" p-id="1630"></path><path d="M682.844164 176.952002l-49.886309-28.991816q-25.650962-40.217651-53.793408-56.624641L629.050755 120.327361q28.156603 16.364521 53.793409 56.624641" fill="#ffffff" p-id="1631"></path><path d="M393.633812 525.391727l-49.886308-28.991815 114.056182-65.854457 49.886308 28.991816-114.056182 65.854456z" fill="#ffffff" p-id="1632"></path><path d="M331.403332 927.370051L281.517024 898.378235l-1.840301-645.520903 49.886308 28.991816 1.840301 645.520903z" fill="#ffffff" p-id="1633"></path><path d="M329.577187 281.849148l-49.886308-28.991816q0-18.049104-7.941606-22.536606l49.886309 28.977659q7.870825 4.501659 7.941605 22.550763" fill="#ffffff" p-id="1634"></path><path d="M658.778691 28.991816l43.572661 127.405441L682.844164 176.952002q-31.539925-49.433311-66.859545-62.825039t-78.368502 11.438177L428.033281 188.871489a75.155054 75.155054 0 0 0-25.481088 23.725724 57.403229 57.403229 0 0 0-9.69697 32.743198l0.792745 280.051316 114.056182-65.854456q39.325813-22.649856 56.964389-55.562929t17.51117-78.142004V298.694979l23.088697-13.349259 0.764433 265.413846-23.102854 13.335103v-17.964167q-0.127405-49.305906-17.907542-66.038487t-57.120106 5.988056l-114.056183 65.854457 0.962619 338.884317q0 18.091573 9.909312 21.460739t25.481089-5.662464l101.924353-58.818845q58.776377-33.974784 99.815085-96.077859t64.325591-157.034285l19.634595-2.095111-42.864853 200.29551L272.726048 1024v-26.528644L296.196962 983.85313q19.606282-11.324928 27.420482-24.872374t7.785888-31.639017l-1.826145-645.520903q0-18.06326-7.941605-22.550763T294.158475 266.135811l-19.620438 11.324928v-26.5428z" fill="#ffffff" p-id="1635"></path><path d="M274.538037 277.446583L224.651728 248.454767l-0.07078-26.542801 49.886308 28.991816 0.070781 26.542801z" fill="#ffffff" p-id="1636"></path><path d="M274.467256 250.903782L224.580948 221.911966 608.934852 0l49.886308 28.991816L274.467256 250.903782z" fill="#ffffff" p-id="1637"></path></svg>
